<?xml version="1.0" standalone="no"?>
<!DOCTYPE svg PUBLIC "-//W3C//DTD SVG 20010904//EN"
 "http://www.w3.org/TR/2001/REC-SVG-20010904/DTD/svg10.dtd">
<svg version="1.0" xmlns="http://www.w3.org/2000/svg"
 width="128.000000pt" height="128.000000pt" viewBox="0 0 128.000000 128.000000"
 preserveAspectRatio="xMidYMid meet">

<g transform="translate(0.000000,128.000000) scale(0.100000,-0.100000)"
fill="#000000" stroke="none">
<path d="M311 1090 c-93 -19 -185 -100 -215 -188 -9 -25 -16 -76 -16 -112 0
-53 -4 -70 -19 -84 -11 -10 -29 -41 -41 -69 -41 -95 -12 -209 70 -279 36 -31
96 -58 130 -58 6 0 32 -18 57 -39 113 -100 288 -99 400 3 37 33 46 36 99 36
67 0 123 22 176 69 20 17 47 31 60 31 46 0 117 31 163 72 89 78 124 198 91
310 -40 138 -203 239 -336 209 -40 -9 -47 -7 -87 20 -64 45 -136 57 -211 36
l-60 -17 -59 30 c-65 32 -136 43 -202 30z m45 -362 c5 -8 0 -9 -15 -5 -13 3
-29 3 -37 0 -25 -9 -15 -32 18 -41 40 -10 57 -34 39 -56 -15 -18 -67 -21 -91
-6 -21 13 -7 22 21 12 13 -5 30 -7 37 -5 23 9 12 32 -20 41 -40 10 -57 34 -39
56 16 18 76 21 87 4z m78 -3 c-19 -14 -19 -14 1 -15 18 -1 19 -1 3 -11 -12 -7
-18 -22 -18 -49 0 -22 -4 -40 -10 -40 -5 0 -10 17 -10 38 0 21 -5 43 -12 50
-9 9 -9 12 0 12 7 0 12 7 12 15 0 10 10 15 27 15 26 0 26 -1 7 -15z m111 -65
c0 -42 -2 -45 -27 -48 -20 -2 -28 -9 -28 -23 0 -10 -7 -19 -15 -19 -12 0 -15
15 -15 71 l0 70 43 -3 42 -3 0 -45z m110 0 c0 -42 -2 -45 -28 -48 -36 -4 -57
13 -57 47 0 36 19 53 55 49 28 -3 30 -5 30 -48z m52 30 c3 -11 9 -20 13 -20 4
0 10 9 13 20 7 27 25 25 37 -2 l9 -23 7 23 c9 32 38 30 30 -3 -19 -76 -36 -92
-57 -53 l-12 22 -8 -22 c-13 -34 -35 -26 -47 17 -7 21 -12 43 -12 50 0 19 22
12 27 -9z m207 14 c9 -3 16 -17 16 -30 0 -20 -5 -24 -31 -24 -20 0 -29 -4 -26
-12 2 -8 16 -12 31 -10 19 3 26 0 22 -7 -9 -15 -59 -14 -74 1 -15 15 -15 61 0
76 13 13 37 15 62 6z m116 -5 c0 -5 -10 -9 -22 -7 -20 3 -23 -2 -26 -39 -2
-29 -8 -43 -18 -43 -10 0 -14 13 -14 50 l0 50 40 0 c22 0 40 -5 40 -11z"/>
<path d="M497 693 c-4 -3 -7 -18 -7 -33 0 -15 3 -30 7 -33 10 -10 33 13 33 33
0 20 -23 43 -33 33z"/>
<path d="M607 693 c-4 -3 -7 -18 -7 -33 0 -15 3 -30 7 -33 10 -10 33 13 33 33
0 20 -23 43 -33 33z"/>
<path d="M876 693 c-12 -12 -6 -33 9 -33 8 0 15 6 15 14 0 17 -14 28 -24 19z"/>
</g>
</svg>
